<?xml version="1.0" encoding="UTF-8" standalone="no"?><svg xmlns="http://www.w3.org/2000/svg" xmlns:xlink= "http://www.w3.org/1999/xlink" width="600" height="390" aria-label="A chart." style="overflow: hidden;"><defs id="_ABSTRACT_RENDERER_ID_108"><clipPath id="_ABSTRACT_RENDERER_ID_109"><rect x="115" y="75" width="371" height="241"></rect></clipPath></defs><rect x="0" y="0" width="600" height="390" stroke="none" stroke-width="0" fill="#ffffff"></rect><g><text text-anchor="start" x="115" y="52.05" font-family="Arial" font-size="13" font-weight="bold" stroke="none" stroke-width="0" fill="#000000">Análise aos tempos de execução do Problema</text><rect x="115" y="41" width="371" height="13" stroke="none" stroke-width="0" fill-opacity="0" fill="#ffffff"></rect></g><g><rect x="499" y="75" width="88" height="13" stroke="none" stroke-width="0" fill-opacity="0" fill="#ffffff"></rect><g><rect x="499" y="75" width="88" height="13" stroke="none" stroke-width="0" fill-opacity="0" fill="#ffffff"></rect><g><text text-anchor="start" x="530" y="86.05" font-family="Arial" font-size="13" stroke="none" stroke-width="0" fill="#222222">Problema</text></g><path d="M499,81.5L525,81.5" stroke="#cc4a33" stroke-width="3" fill-opacity="1" fill="none"></path><circle cx="512" cy="81.5" r="2.5" stroke="none" stroke-width="0" fill="#cc4a33"></circle></g></g><g><rect x="115" y="75" width="371" height="241" stroke="none" stroke-width="0" fill-opacity="0" fill="#ffffff"></rect><g clip-path="url(https://www.rapidtables.com/tools/line-graph.html#_ABSTRACT_RENDERER_ID_109)"><g><rect x="115" y="315" width="371" height="1" stroke="none" stroke-width="0" fill="#cccccc"></rect><rect x="115" y="267" width="371" height="1" stroke="none" stroke-width="0" fill="#cccccc"></rect><rect x="115" y="219" width="371" height="1" stroke="none" stroke-width="0" fill="#cccccc"></rect><rect x="115" y="171" width="371" height="1" stroke="none" stroke-width="0" fill="#cccccc"></rect><rect x="115" y="123" width="371" height="1" stroke="none" stroke-width="0" fill="#cccccc"></rect><rect x="115" y="75" width="371" height="1" stroke="none" stroke-width="0" fill="#cccccc"></rect></g><g><rect x="115" y="315" width="371" height="1" stroke="none" stroke-width="0" fill="#333333"></rect></g><g><path d="M134,291.5C134,291.5,158.66666666666669,276.4919999999936,171,268.844C183.33333333333331,261.1960000000064,195.66666666666669,253.1639999999936,208,245.61200000000002C220.33333333333334,238.0600000000064,232.66666666666666,231.1480000000064,245,223.532C257.33333333333337,215.9159999999936,269.66666666666663,207.692,282,199.916C294.3333333333333,192.14,306.6666666666667,184.6199999999936,319,176.876C331.3333333333333,169.13200000000643,343.6666666666667,161.00399999999362,356,153.452C368.3333333333333,145.9000000000064,380.6666666666667,138.956,393,131.56400000000002C405.3333333333333,124.172,417.6666666666667,116.81200000006402,430,109.1C442.33333333333337,101.387999999936,467,85.292,467,85.292" stroke="#cc4a33" stroke-width="3" fill-opacity="1" fill="none"></path></g></g><g><circle cx="134" cy="291.5" r="2.5" stroke="none" stroke-width="0" fill="#cc4a33"></circle><circle cx="171" cy="268.844" r="2.5" stroke="none" stroke-width="0" fill="#cc4a33"></circle><circle cx="208" cy="245.61200000000002" r="2.5" stroke="none" stroke-width="0" fill="#cc4a33"></circle><circle cx="245" cy="223.532" r="2.5" stroke="none" stroke-width="0" fill="#cc4a33"></circle><circle cx="282" cy="199.916" r="2.5" stroke="none" stroke-width="0" fill="#cc4a33"></circle><circle cx="319" cy="176.876" r="2.5" stroke="none" stroke-width="0" fill="#cc4a33"></circle><circle cx="356" cy="153.452" r="2.5" stroke="none" stroke-width="0" fill="#cc4a33"></circle><circle cx="393" cy="131.56400000000002" r="2.5" stroke="none" stroke-width="0" fill="#cc4a33"></circle><circle cx="430" cy="109.1" r="2.5" stroke="none" stroke-width="0" fill="#cc4a33"></circle><circle cx="467" cy="85.292" r="2.5" stroke="none" stroke-width="0" fill="#cc4a33"></circle></g><g><g><text text-anchor="middle" x="134" y="335.05" font-family="Arial" font-size="13" stroke="none" stroke-width="0" fill="#222222">1</text></g><g><text text-anchor="middle" x="171" y="335.05" font-family="Arial" font-size="13" stroke="none" stroke-width="0" fill="#222222">2</text></g><g><text text-anchor="middle" x="208" y="335.05" font-family="Arial" font-size="13" stroke="none" stroke-width="0" fill="#222222">3</text></g><g><text text-anchor="middle" x="245" y="335.05" font-family="Arial" font-size="13" stroke="none" stroke-width="0" fill="#222222">4</text></g><g><text text-anchor="middle" x="282" y="335.05" font-family="Arial" font-size="13" stroke="none" stroke-width="0" fill="#222222">5</text></g><g><text text-anchor="middle" x="319" y="335.05" font-family="Arial" font-size="13" stroke="none" stroke-width="0" fill="#222222">6</text></g><g><text text-anchor="middle" x="356" y="335.05" font-family="Arial" font-size="13" stroke="none" stroke-width="0" fill="#222222">7</text></g><g><text text-anchor="middle" x="393" y="335.05" font-family="Arial" font-size="13" stroke="none" stroke-width="0" fill="#222222">8</text></g><g><text text-anchor="middle" x="430" y="335.05" font-family="Arial" font-size="13" stroke="none" stroke-width="0" fill="#222222">9</text></g><g><text text-anchor="middle" x="467" y="335.05" font-family="Arial" font-size="13" stroke="none" stroke-width="0" fill="#222222">10</text></g><g><text text-anchor="end" x="102" y="320.05" font-family="Arial" font-size="13" stroke="none" stroke-width="0" fill="#444444">0</text></g><g><text text-anchor="end" x="102" y="272.05" font-family="Arial" font-size="13" stroke="none" stroke-width="0" fill="#444444">25</text></g><g><text text-anchor="end" x="102" y="224.05" font-family="Arial" font-size="13" stroke="none" stroke-width="0" fill="#444444">50</text></g><g><text text-anchor="end" x="102" y="176.05" font-family="Arial" font-size="13" stroke="none" stroke-width="0" fill="#444444">75</text></g><g><text text-anchor="end" x="102" y="128.05" font-family="Arial" font-size="13" stroke="none" stroke-width="0" fill="#444444">100</text></g><g><text text-anchor="end" x="102" y="80.05" font-family="Arial" font-size="13" stroke="none" stroke-width="0" fill="#444444">125</text></g></g></g><g><g><text text-anchor="middle" x="300.5" y="368.05" font-family="Arial" font-size="13" font-style="italic" stroke="none" stroke-width="0" fill="#222222">Número de vértices [ ×10⁴ ]</text><rect x="115" y="357" width="371" height="13" stroke="none" stroke-width="0" fill-opacity="0" fill="#ffffff"></rect></g><g><text text-anchor="middle" x="44.55" y="195.5" font-family="Arial" font-size="13" font-style="italic" transform="rotate(-90 44.55 195.5)" stroke="none" stroke-width="0" fill="#222222">Tempo [ ms ]</text><path d="M33.49999999999999,316L33.50000000000001,75L46.50000000000001,75L46.49999999999999,316Z" stroke="none" stroke-width="0" fill-opacity="0" fill="#ffffff"></path></g></g><g></g></svg>